<?xml version="1.0" standalone="no"?>
<!DOCTYPE svg PUBLIC "-//W3C//DTD SVG 20010904//EN"
 "http://www.w3.org/TR/2001/REC-SVG-20010904/DTD/svg10.dtd">
<svg version="1.0" xmlns="http://www.w3.org/2000/svg"
 width="512.000000pt" height="512.000000pt" viewBox="0 0 512.000000 512.000000"
 preserveAspectRatio="xMidYMid meet">
<metadata>
Created by potrace 1.14, written by Peter Selinger 2001-2017
</metadata>
<g transform="translate(0.000000,512.000000) scale(0.100000,-0.100000)"
fill="#000000" stroke="none">
<path d="M0 2560 l0 -2560 2560 0 2560 0 0 2560 0 2560 -2560 0 -2560 0 0
-2560z m1032 1610 c11 -30 97 -260 190 -510 322 -860 479 -1312 537 -1543 16
-66 31 -121 33 -123 3 -2 12 22 22 54 23 74 155 389 362 868 l165 382 -96 283
c-85 250 -205 627 -205 643 0 3 103 6 229 6 171 0 231 -3 238 -12 11 -14 328
-838 417 -1084 30 -82 125 -334 211 -560 87 -225 168 -449 180 -499 22 -89 23
-90 30 -50 42 233 196 683 488 1430 79 204 179 461 222 573 l78 202 253 0
c140 0 254 -2 254 -5 0 -9 -404 -1055 -635 -1645 -181 -463 -534 -1383 -608
-1585 -49 -133 -56 -147 -65 -125 -16 40 -733 1832 -745 1860 -10 24 -10 24
-20 -15 -5 -22 -97 -240 -205 -485 -173 -395 -370 -850 -540 -1247 -31 -73
-60 -129 -64 -125 -4 4 -70 174 -148 377 -78 204 -285 741 -461 1195 -483
1249 -686 1784 -682 1793 3 4 126 6 275 5 l270 -3 20 -55z"/>
</g>
</svg>
